# xmcd CD database file
#
# Track frame offsets:
#	150
#	12765
#	35274
#	49993
#	63840
#	90055
#	101645
#	127731
#	144133
#	168442
#	201211
#
# Disc length: 3111 seconds
#
# Revision: 1
# Processed by: cddbd v1.5.2PL0 Copyright (c) Steve Scherf et al.
# Submitted via: jetAudio 5
#
DISCID=7d0c250b
DTITLE=Gary Moore - Close as you get
DYEAR=1900
DGENRE=
TTITLE0=If The Devil Made Whisky
TTITLE1=Troble At Home
TTITLE2=Thirty Days
TTITLE3=Hard Times
TTITLE4=Have You Heard
TTITLE5=Eyesight To The Blind
TTITLE6=Evenin
TTITLE7=Nowhere Fast
TTITLE8=Chekin Up On My Baby
TTITLE9=I Had A Dream
TTITLE10=Sundown
EXTD=
EXTT0=
EXTT1=
EXTT2=
EXTT3=
EXTT4=
EXTT5=
EXTT6=
EXTT7=
EXTT8=
EXTT9=
EXTT10=
PLAYORDER=
